<svg width="20" height="20" viewBox="0 0 20 20" fill="none" xmlns="http://www.w3.org/2000/svg">
<path d="M19.817 16.0672L13.7498 10L19.817 3.9328C19.9333 3.81512 19.9985 3.65636 19.9985 3.49095C19.9985 3.32553 19.9333 3.16677 19.817 3.04909L16.9509 0.182983C16.8337 0.0658189 16.6748 0 16.5091 0C16.3433 0 16.1844 0.0658189 16.0672 0.182983L10 6.25018L3.9328 0.182983C3.8156 0.0658189 3.65666 0 3.49095 0C3.32523 0 3.16629 0.0658189 3.04909 0.182983L0.182983 3.04909C0.0658189 3.16629 0 3.32523 0 3.49095C0 3.65666 0.0658189 3.8156 0.182983 3.9328L6.25018 10L0.182983 16.0672C0.0658189 16.1844 0 16.3433 0 16.5091C0 16.6748 0.0658189 16.8337 0.182983 16.9509L3.04909 19.817C3.16629 19.9342 3.32523 20 3.49095 20C3.65666 20 3.8156 19.9342 3.9328 19.817L10 13.7498L16.0672 19.817C16.1844 19.9342 16.3433 20 16.5091 20C16.6748 20 16.8337 19.9342 16.9509 19.817L19.817 16.9509C19.9342 16.8337 20 16.6748 20 16.5091C20 16.3433 19.9342 16.1844 19.817 16.0672Z" fill="black"/>
</svg>
