<svg width="20" height="17" viewBox="0 0 20 17" fill="none" xmlns="http://www.w3.org/2000/svg">
<path d="M0 17L10 0L20 17H0ZM3.13636 15.2105H16.8636L10 3.57895L3.13636 15.2105ZM10.6482 14.059C10.8221 13.8872 10.9091 13.6746 10.9091 13.4211C10.9091 13.1675 10.8218 12.9552 10.6473 12.784C10.4727 12.6128 10.257 12.5269 10 12.5263C9.74303 12.5257 9.52727 12.6116 9.35273 12.784C9.17818 12.9564 9.09091 13.1687 9.09091 13.4211C9.09091 13.6734 9.17818 13.886 9.35273 14.059C9.52727 14.232 9.74303 14.3176 10 14.3158C10.257 14.314 10.473 14.229 10.6482 14.059ZM9.09091 11.6316H10.9091V7.15789H9.09091V11.6316Z" fill="white"/>
</svg>
