<svg width="18" height="18" viewBox="0 0 18 18" fill="none" xmlns="http://www.w3.org/2000/svg">
<path d="M17.6898 0.439196C17.8884 0.720497 18 1.10197 18 1.49973C18 1.89749 17.8884 2.27897 17.6898 2.56027L7.09373 17.5608C6.89503 17.842 6.62556 18 6.3446 18C6.06363 18 5.79416 17.842 5.59546 17.5608L0.297443 10.0605C0.104428 9.77762 -0.00237416 9.39871 4.00556e-05 9.0054C0.00245427 8.61209 0.113892 8.23586 0.310351 7.95774C0.50681 7.67961 0.772571 7.52185 1.0504 7.51844C1.32822 7.51502 1.59588 7.66622 1.79572 7.93946L6.3446 14.3792L16.1915 0.439196C16.3902 0.157979 16.6597 0 16.9406 0C17.2216 0 17.4911 0.157979 17.6898 0.439196Z" fill="white"/>
</svg>
