<svg width="56" height="56" viewBox="0 0 56 56" fill="none" xmlns="http://www.w3.org/2000/svg">
<path d="M0 0H56V48C56 52.4183 52.4183 56 48 56H8C3.58172 56 0 52.4183 0 48V0Z" fill="#00008B"/>
<path d="M37.7331 35L27.508 24.7654L17.283 35L15 32.7185L25.2412 22.5L15 12.2815L17.283 10L27.508 20.2346L37.7331 10.0161L40 12.2815L29.7749 22.5L40 32.7185L37.7331 35Z" fill="white"/>
<path d="M16.5971 51.1364C15.9835 51.1364 15.4551 50.9915 15.0119 50.7017C14.5687 50.4119 14.2278 50.0128 13.9892 49.5043C13.7505 48.9957 13.6312 48.4148 13.6312 47.7614C13.6312 47.0966 13.7534 46.5099 13.9977 46.0014C14.2449 45.4901 14.5886 45.0909 15.0289 44.804C15.4721 44.5142 15.9892 44.3693 16.5801 44.3693C17.0403 44.3693 17.4551 44.4545 17.8244 44.625C18.1937 44.7955 18.4963 45.0341 18.7321 45.3409C18.9679 45.6477 19.1142 46.0057 19.171 46.4148H18.1653C18.0886 46.1165 17.9181 45.8523 17.6539 45.6222C17.3926 45.3892 17.0403 45.2727 16.5971 45.2727C16.2051 45.2727 15.8613 45.375 15.5659 45.5795C15.2733 45.7812 15.0446 46.0668 14.8798 46.4361C14.7179 46.8026 14.6369 47.233 14.6369 47.7273C14.6369 48.233 14.7164 48.6733 14.8755 49.0483C15.0375 49.4233 15.2647 49.7145 15.5574 49.9219C15.8528 50.1293 16.1994 50.233 16.5971 50.233C16.8585 50.233 17.0957 50.1875 17.3088 50.0966C17.5218 50.0057 17.7022 49.875 17.85 49.7045C17.9977 49.5341 18.1028 49.3295 18.1653 49.0909H19.171C19.1142 49.4773 18.9735 49.8253 18.7491 50.1349C18.5275 50.4418 18.2335 50.6861 17.867 50.8679C17.5034 51.0469 17.0801 51.1364 16.5971 51.1364ZM21.6468 42.2727V51H20.6412V42.2727H21.6468ZM26.1479 51.1364C25.557 51.1364 25.0385 50.9957 24.5925 50.7145C24.1493 50.4332 23.8027 50.0398 23.5527 49.5341C23.3056 49.0284 23.182 48.4375 23.182 47.7614C23.182 47.0795 23.3056 46.4844 23.5527 45.9759C23.8027 45.4673 24.1493 45.0724 24.5925 44.7912C25.0385 44.5099 25.557 44.3693 26.1479 44.3693C26.7388 44.3693 27.2559 44.5099 27.699 44.7912C28.1451 45.0724 28.4917 45.4673 28.7388 45.9759C28.9888 46.4844 29.1138 47.0795 29.1138 47.7614C29.1138 48.4375 28.9888 49.0284 28.7388 49.5341C28.4917 50.0398 28.1451 50.4332 27.699 50.7145C27.2559 50.9957 26.7388 51.1364 26.1479 51.1364ZM26.1479 50.233C26.5968 50.233 26.9661 50.1179 27.2559 49.8878C27.5456 49.6577 27.7601 49.3551 27.8993 48.9801C28.0385 48.6051 28.1081 48.1989 28.1081 47.7614C28.1081 47.3239 28.0385 46.9162 27.8993 46.5384C27.7601 46.1605 27.5456 45.8551 27.2559 45.6222C26.9661 45.3892 26.5968 45.2727 26.1479 45.2727C25.699 45.2727 25.3297 45.3892 25.04 45.6222C24.7502 45.8551 24.5357 46.1605 24.3965 46.5384C24.2573 46.9162 24.1877 47.3239 24.1877 47.7614C24.1877 48.1989 24.2573 48.6051 24.3965 48.9801C24.5357 49.3551 24.7502 49.6577 25.04 49.8878C25.3297 50.1179 25.699 50.233 26.1479 50.233ZM35.2853 45.9205L34.3819 46.1761C34.3251 46.0256 34.2413 45.8793 34.1305 45.7372C34.0225 45.5923 33.8748 45.473 33.6873 45.3793C33.4998 45.2855 33.2598 45.2386 32.9672 45.2386C32.5666 45.2386 32.2328 45.331 31.9657 45.5156C31.7015 45.6974 31.5694 45.929 31.5694 46.2102C31.5694 46.4602 31.6603 46.6577 31.8422 46.8026C32.024 46.9474 32.3081 47.0682 32.6944 47.1648L33.666 47.4034C34.2512 47.5455 34.6873 47.7628 34.9743 48.0554C35.2612 48.3452 35.4047 48.7187 35.4047 49.1761C35.4047 49.5511 35.2967 49.8864 35.0808 50.1818C34.8677 50.4773 34.5694 50.7102 34.1859 50.8807C33.8024 51.0511 33.3564 51.1364 32.8478 51.1364C32.1802 51.1364 31.6277 50.9915 31.1902 50.7017C30.7527 50.4119 30.4757 49.9886 30.3592 49.4318L31.3137 49.1932C31.4047 49.5455 31.5765 49.8097 31.8294 49.9858C32.085 50.1619 32.4189 50.25 32.8308 50.25C33.2995 50.25 33.6717 50.1506 33.9473 49.9517C34.2257 49.75 34.3649 49.5085 34.3649 49.2273C34.3649 49 34.2853 48.8097 34.1262 48.6562C33.9672 48.5 33.7228 48.3835 33.3933 48.3068L32.3024 48.0511C31.7029 47.9091 31.2626 47.6889 30.9814 47.3906C30.7029 47.0895 30.5637 46.7131 30.5637 46.2614C30.5637 45.892 30.6674 45.5653 30.8748 45.2812C31.085 44.9972 31.3706 44.7741 31.7314 44.6122C32.095 44.4503 32.5069 44.3693 32.9672 44.3693C33.6149 44.3693 34.1234 44.5114 34.4927 44.7955C34.8649 45.0795 35.1291 45.4545 35.2853 45.9205ZM39.6628 51.1364C39.0321 51.1364 38.4881 50.9972 38.0307 50.7188C37.5762 50.4375 37.2253 50.0455 36.9782 49.5426C36.7338 49.0369 36.6117 48.4489 36.6117 47.7784C36.6117 47.108 36.7338 46.517 36.9782 46.0057C37.2253 45.4915 37.5691 45.0909 38.0094 44.804C38.4526 44.5142 38.9696 44.3693 39.5605 44.3693C39.9015 44.3693 40.2381 44.4261 40.5705 44.5398C40.9029 44.6534 41.2054 44.8381 41.4782 45.0938C41.7509 45.3466 41.9682 45.6818 42.1301 46.0994C42.2921 46.517 42.373 47.0312 42.373 47.642V48.0682H37.3276V47.1989H41.3503C41.3503 46.8295 41.2765 46.5 41.1287 46.2102C40.9838 45.9205 40.7765 45.6918 40.5066 45.5241C40.2395 45.3565 39.9242 45.2727 39.5605 45.2727C39.16 45.2727 38.8134 45.3722 38.5208 45.571C38.231 45.767 38.008 46.0227 37.8517 46.3381C37.6955 46.6534 37.6174 46.9915 37.6174 47.3523V47.9318C37.6174 48.4261 37.7026 48.8452 37.873 49.1889C38.0463 49.5298 38.2864 49.7898 38.5932 49.9688C38.9 50.1449 39.2566 50.233 39.6628 50.233C39.927 50.233 40.1657 50.196 40.3787 50.1222C40.5946 50.0455 40.7807 49.9318 40.937 49.7812C41.0932 49.6278 41.214 49.4375 41.2992 49.2102L42.2708 49.483C42.1685 49.8125 41.9966 50.1023 41.7551 50.3523C41.5137 50.5994 41.2154 50.7926 40.8603 50.9318C40.5051 51.0682 40.106 51.1364 39.6628 51.1364Z" fill="white"/>
</svg>
