<svg width="22" height="22" viewBox="0 0 22 22" fill="none" xmlns="http://www.w3.org/2000/svg">
<path d="M19.293 1.29297C19.6835 0.902444 20.3165 0.902444 20.707 1.29297C21.0976 1.68349 21.0976 2.31651 20.707 2.70703L12.4141 11L20.707 19.293C21.0976 19.6835 21.0976 20.3165 20.707 20.707C20.3165 21.0976 19.6835 21.0976 19.293 20.707L11 12.4141L2.70703 20.707C2.31651 21.0976 1.68349 21.0976 1.29297 20.707C0.902444 20.3165 0.902444 19.6835 1.29297 19.293L9.58594 11L1.29297 2.70703C0.902444 2.31651 0.902444 1.68349 1.29297 1.29297C1.68349 0.902444 2.31651 0.902444 2.70703 1.29297L11 9.58594L19.293 1.29297Z" stroke="#F80A0A" stroke-width="2" stroke-linecap="round"/>
</svg>
