<svg width="44" height="55" viewBox="0 0 44 55" fill="none" xmlns="http://www.w3.org/2000/svg">
<path d="M7 53C5.67392 53 4.40215 52.4627 3.46447 51.5062C2.52678 50.5498 2 49.2526 2 47.9V7.10001C2 5.7474 2.52678 4.4502 3.46447 3.49376C4.40215 2.53733 5.67392 2.00001 7 2.00001H27C27.7914 1.9987 28.5752 2.15709 29.3063 2.46607C30.0374 2.77504 30.7014 3.22849 31.26 3.80031L40.23 12.9497C40.7921 13.5196 41.2379 14.1975 41.5417 14.9442C41.8455 15.6909 42.0013 16.4916 42 17.3V47.9C42 49.2526 41.4732 50.5498 40.5355 51.5062C39.5978 52.4627 38.3261 53 37 53H7Z" stroke="#00008B" stroke-width="4" stroke-linecap="round" stroke-linejoin="round"/>
<path d="M20.25 2V11.5C20.25 12.0039 20.4475 12.4872 20.7992 12.8435C21.1508 13.1998 21.6277 13.4 22.125 13.4H31.5M12.75 15.3H9M24 22.9H9M24 30.5H9" stroke="#00008B" stroke-width="4" stroke-linecap="round" stroke-linejoin="round"/>
</svg>
