<svg width="44" height="55" viewBox="0 0 44 55" fill="none" xmlns="http://www.w3.org/2000/svg">
<path d="M7 52.6667C5.67392 52.6667 4.40215 52.1329 3.46447 51.1827C2.52678 50.2325 2 48.9438 2 47.6V7.06667C2 5.72291 2.52678 4.43418 3.46447 3.484C4.40215 2.53382 5.67392 2.00001 7 2.00001H27C27.7914 1.99871 28.5752 2.15607 29.3063 2.46302C30.0374 2.76998 30.7014 3.22046 31.26 3.78854L40.23 12.8781C40.7921 13.4444 41.2379 14.1178 41.5417 14.8596C41.8455 15.6014 42.0013 16.3969 42 17.2V47.6C42 48.9438 41.4732 50.2325 40.5355 51.1827C39.5978 52.1329 38.3261 52.6667 37 52.6667H7Z" stroke="#88BB80" stroke-width="4" stroke-linecap="round" stroke-linejoin="round"/>
<path d="M27 2V14.6667C27 15.3385 27.2634 15.9829 27.7322 16.458C28.2011 16.9331 28.837 17.2 29.5 17.2H42M17 19.7333H12M32 29.8667H12M32 40H12" stroke="#88BB80" stroke-width="4" stroke-linecap="round" stroke-linejoin="round"/>
</svg>
