<svg width="24" height="16" viewBox="0 0 24 16" fill="none" xmlns="http://www.w3.org/2000/svg">
<path d="M2.4 16C1.74 16 1.1752 15.8043 0.7056 15.413C0.236 15.0217 0.0008 14.5507 0 14V2C0 1.45 0.2352 0.979333 0.7056 0.588C1.176 0.196666 1.7408 0.000666667 2.4 0H21.6C22.26 0 22.8252 0.196 23.2956 0.588C23.766 0.98 24.0008 1.45067 24 2V14C24 14.55 23.7652 15.021 23.2956 15.413C22.826 15.805 22.2608 16.0007 21.6 16H2.4ZM12 9L2.4 4V14H21.6V4L12 9ZM12 7L21.6 2H2.4L12 7ZM2.4 4V2V14V4Z" fill="white"/>
</svg>
