<svg width="42" height="33" viewBox="0 0 42 33" fill="none" xmlns="http://www.w3.org/2000/svg">
<path d="M3.77067 33C2.69578 33 1.799 32.637 1.08033 31.911C0.361667 31.185 0.00155556 30.2783 0 29.1909V3.80914C0 2.72329 0.360111 1.81736 1.08033 1.09136C1.80056 0.365357 2.69655 0.00157143 3.76833 0H38.2317C39.305 0 40.201 0.363785 40.9197 1.09136C41.6383 1.81893 41.9984 2.72486 42 3.80914V29.1932C42 30.2775 41.6399 31.1834 40.9197 31.911C40.1994 32.6386 39.3034 33.0016 38.2317 33H3.77067ZM21 16.7734L2.33333 4.44321V29.1932C2.33333 29.6159 2.46789 29.9632 2.737 30.2351C3.00611 30.5069 3.35067 30.6429 3.77067 30.6429H38.2317C38.6501 30.6429 38.9939 30.5069 39.263 30.2351C39.5321 29.9632 39.6667 29.6151 39.6667 29.1909V4.44086L21 16.7734ZM21 14.1429L38.948 2.35714H3.052L21 14.1429ZM2.33333 4.44321V2.35714V29.1932C2.33333 29.6159 2.46789 29.9632 2.737 30.2351C3.00611 30.5069 3.35067 30.6429 3.77067 30.6429H2.33333V4.44321Z" fill="white"/>
</svg>
