<svg width="24" height="22" viewBox="0 0 24 22" fill="none" xmlns="http://www.w3.org/2000/svg">
<path d="M15.36 1.97129L23.4013 15.6126C24.5569 17.5719 23.9893 20.1495 22.1329 21.3693C21.5102 21.7811 20.7837 22.0001 20.0413 22H3.95761C1.77241 22 0 20.13 0 17.8212C0 17.0402 0.207601 16.2763 0.597602 15.6126L8.64002 1.97129C9.79443 0.0120492 12.2352 -0.588067 14.0916 0.631721C14.6052 0.969057 15.0396 1.42739 15.36 1.97129ZM12.696 2.99674C12.5491 2.9005 12.3846 2.83558 12.2124 2.80592C12.0401 2.77626 11.8638 2.78246 11.694 2.82416C11.5242 2.86586 11.3644 2.94218 11.2244 3.04852C11.0844 3.15485 10.9669 3.289 10.8792 3.44285L2.83801 17.0866C2.70739 17.309 2.63853 17.5633 2.63881 17.8224C2.63881 18.5924 3.22921 19.2158 3.95881 19.2158H20.0401C20.2873 19.2158 20.5285 19.1424 20.7373 19.0055C21.0369 18.8028 21.2481 18.4901 21.3271 18.1326C21.406 17.7752 21.3464 17.4005 21.1609 17.0866L13.1196 3.44285C13.0149 3.26267 12.8702 3.10991 12.6972 2.99674H12.696ZM12 17.1111C11.6818 17.1111 11.3765 16.9823 11.1515 16.7531C10.9265 16.5239 10.8 16.213 10.8 15.8888C10.8 15.5647 10.9265 15.2538 11.1515 15.0246C11.3765 14.7954 11.6818 14.6666 12 14.6666C12.3183 14.6666 12.6235 14.7954 12.8486 15.0246C13.0736 15.2538 13.2 15.5647 13.2 15.8888C13.2 16.213 13.0736 16.5239 12.8486 16.7531C12.6235 16.9823 12.3183 17.1111 12 17.1111ZM12 6.11099C12.3183 6.11099 12.6235 6.23976 12.8486 6.46897C13.0736 6.69818 13.2 7.00906 13.2 7.33322V12.2221C13.2 12.5463 13.0736 12.8572 12.8486 13.0864C12.6235 13.3156 12.3183 13.4444 12 13.4444C11.6818 13.4444 11.3765 13.3156 11.1515 13.0864C10.9265 12.8572 10.8 12.5463 10.8 12.2221V7.33322C10.8 7.00906 10.9265 6.69818 11.1515 6.46897C11.3765 6.23976 11.6818 6.11099 12 6.11099Z" fill="#F80A0A"/>
</svg>
