<svg width="20" height="20" viewBox="0 0 20 20" fill="none" xmlns="http://www.w3.org/2000/svg">
<path fill-rule="evenodd" clip-rule="evenodd" d="M10.597 18.5868L10.586 18.5888L10.515 18.6238L10.495 18.6278L10.481 18.6238L10.41 18.5888C10.3993 18.5855 10.3913 18.5871 10.386 18.5938L10.382 18.6038L10.365 19.0318L10.37 19.0518L10.38 19.0648L10.484 19.1388L10.499 19.1428L10.511 19.1388L10.615 19.0648L10.627 19.0488L10.631 19.0318L10.614 18.6048C10.6113 18.5941 10.6056 18.5881 10.597 18.5868ZM10.862 18.4738L10.849 18.4758L10.664 18.5688L10.654 18.5788L10.651 18.5898L10.669 19.0198L10.674 19.0318L10.682 19.0388L10.883 19.1318C10.8956 19.1351 10.9053 19.1325 10.912 19.1238L10.916 19.1098L10.882 18.4958C10.8786 18.4838 10.872 18.4765 10.862 18.4738ZM10.147 18.4758C10.1425 18.4731 10.1373 18.4723 10.1323 18.4734C10.1272 18.4745 10.1228 18.4775 10.12 18.4818L10.114 18.4958L10.08 19.1098C10.0806 19.1218 10.0863 19.1298 10.097 19.1338L10.112 19.1318L10.313 19.0388L10.323 19.0308L10.327 19.0198L10.344 18.5898L10.341 18.5778L10.331 18.5678L10.147 18.4758Z" fill="#88BB80"/>
<path fill-rule="evenodd" clip-rule="evenodd" d="M19.5499 0.43968C19.8311 0.720971 19.9891 1.10243 19.9891 1.50018C19.9891 1.89793 19.8311 2.27939 19.5499 2.56068L8.30693 13.8037C8.15835 13.9523 7.98196 14.0702 7.78781 14.1506C7.59367 14.231 7.38558 14.2724 7.17543 14.2724C6.96529 14.2724 6.7572 14.231 6.56305 14.1506C6.36891 14.0702 6.19251 13.9523 6.04393 13.8037L0.457932 8.21868C0.314667 8.08031 0.200394 7.91479 0.12178 7.73179C0.0431668 7.54878 0.00178736 7.35195 5.66349e-05 7.15278C-0.00167409 6.95361 0.0362786 6.75609 0.1117 6.57175C0.187121 6.3874 0.298501 6.21993 0.43934 6.07909C0.580179 5.93825 0.747657 5.82687 0.932001 5.75145C1.11635 5.67603 1.31387 5.63807 1.51303 5.6398C1.7122 5.64153 1.90903 5.68291 2.09204 5.76153C2.27505 5.84014 2.44056 5.95441 2.57893 6.09768L7.17493 10.6937L17.4279 0.43968C17.5672 0.30029 17.7326 0.189715 17.9147 0.114273C18.0967 0.0388304 18.2919 0 18.4889 0C18.686 0 18.8811 0.0388304 19.0632 0.114273C19.2452 0.189715 19.4106 0.30029 19.5499 0.43968Z" fill="#88BB80"/>
</svg>
